<svg width="323" height="113" viewBox="0 0 323 113" fill="none" xmlns="http://www.w3.org/2000/svg">
<path d="M9.01041 106C11.9886 105.605 14.9083 104.748 17.5938 103.439L17.323 102.89C15.1205 101.499 13.4667 99.275 12.7716 96.7651L12.3984 96.4578C9.53727 99.9116 5.88588 102.729 1.75886 104.719C1.32713 104.931 0.800272 105.385 1.07833 105.78C1.20273 105.97 1.45884 106.022 1.69299 106.051C4.10774 106.351 6.57371 106.329 9.01041 106Z" fill="#F6143F"/>
<path d="M10.2686 60.5295C9.96861 63.5224 10.0345 66.5445 10.4662 69.5226C14.0883 71.1983 17.9592 72.2447 21.9033 72.6252C21.7204 70.3715 21.6253 68.1104 21.6326 65.8493C17.8129 64.5102 14.1469 62.7174 10.6784 60.5661L10.2686 60.5295Z" fill="#F6143F"/>
<path d="M10.2682 60.5294L10.6779 60.566C14.1464 62.7173 17.8124 64.51 21.6321 65.8491C21.6394 63.6246 21.7346 61.4002 21.9175 59.1683L21.9395 59.1318C19.5247 57.5219 17.2856 55.5901 15.1196 53.6583C14.183 52.8168 13.2244 51.9387 12.5219 50.8997L12.5073 50.9143C11.3292 54.0022 10.5828 57.2439 10.2682 60.5294Z" fill="#F6143F"/>
<path d="M10.467 69.5227C10.5768 70.2618 10.7012 71.0008 10.8549 71.7326C11.3817 74.2571 12.1793 76.7304 13.2257 79.0939L13.4233 79.0061C16.4307 80.0013 19.6797 80.2354 22.8042 79.7305H22.8115C22.4017 77.3743 22.1017 75.0035 21.9042 72.6253C17.9601 72.2448 14.0892 71.1984 10.467 69.5227Z" fill="#F6143F"/>
<path d="M13.393 40.4948C11.9515 43.4144 10.6343 46.8463 11.9368 49.8391C12.0978 50.2123 12.3027 50.5635 12.5222 50.9001C13.2247 51.9392 14.1833 52.8173 15.1199 53.6588C17.2859 55.5906 19.525 57.5224 21.9398 59.1322C24.1423 60.6104 26.4912 61.8104 29.0523 62.5129C31.5987 63.2154 34.416 63.2666 36.9844 62.6227C27.984 57.2736 18.8591 48.8732 14.2345 39.4777L13.9711 39.3459C13.7735 39.7265 13.5833 40.1143 13.393 40.4948Z" fill="#F6143F"/>
<path d="M12.3977 96.4581L12.7709 96.7655C13.466 99.2753 15.1198 101.5 17.3223 102.89L17.5931 103.439C19.598 102.48 21.4786 101.266 23.1543 99.8168C23.1031 98.9534 23.0519 98.0826 22.986 97.2191H22.964C20.3883 95.3971 18.1272 93.1433 16.2832 90.5896L16.1954 90.5457C15.1783 92.675 13.8978 94.6507 12.3977 96.4581Z" fill="#F6143F"/>
<path d="M13.4231 79.0061L13.2255 79.0939C14.4036 81.794 15.911 84.3551 17.7038 86.704C18.0111 87.1065 18.3258 87.5089 18.6551 87.8968L18.8819 87.7138C20.7844 87.348 22.5479 86.9016 24.2017 86.2357H24.209C24.026 85.5918 23.8651 84.9332 23.7187 84.282C23.3748 82.7672 23.0675 81.2525 22.8114 79.7305H22.804C19.6795 80.2354 16.4306 80.0013 13.4231 79.0061Z" fill="#F6143F"/>
<path d="M13.9706 39.3456L14.234 39.4773C18.8587 48.8729 27.9835 57.2733 36.9839 62.6223C38.5571 62.2418 40.0353 61.5905 41.3085 60.6685C42.3256 59.9295 43.211 59.0148 43.9062 57.9245C44.0672 57.6684 44.2208 57.405 44.3525 57.1342L44.155 57.0318C33.9911 49.6412 26.3151 38.409 21.9978 26.606C18.8733 30.5281 16.239 34.8673 13.9706 39.3456Z" fill="#F6143F"/>
<path d="M16.1948 90.546L16.2826 90.5899C18.1266 93.1437 20.3877 95.3974 22.9634 97.2195H22.9854C22.8683 95.4194 22.7219 93.6193 22.5609 91.8192L22.6195 91.7168C21.9024 91.307 21.2365 90.7289 20.6804 90.1582C19.9706 89.4337 19.2974 88.6801 18.6534 87.8971C18.3242 87.5093 18.0095 87.1068 17.7022 86.7043C17.2924 88.0288 16.7875 89.3167 16.1948 90.546Z" fill="#F6143F"/>
<path d="M18.8812 87.7137L18.6543 87.8967C19.2983 88.6796 19.9715 89.4333 20.6813 90.1577C21.2374 90.7285 21.9033 91.3066 22.6204 91.7163C23.579 92.2725 24.6327 92.5359 25.6278 92.1042C25.9718 91.9578 26.2645 91.7456 26.5206 91.4895L26.5938 91.431C26.2937 91.0285 26.023 90.6261 25.7961 90.2309C25.079 88.9796 24.5961 87.6259 24.2083 86.2356H24.201C22.5472 86.9015 20.7837 87.3478 18.8812 87.7137Z" fill="#F6143F"/>
<path d="M30.809 94.8264C31.8554 95.8875 33.1872 96.5607 34.7019 96.2899C34.8629 96.4436 35.0385 96.5973 35.2214 96.7363C35.6166 97.0509 36.1068 97.329 36.5898 97.329C36.7288 97.329 36.8678 97.307 36.9996 97.2558C37.4313 97.0948 37.724 96.6558 37.8264 96.2021C37.9362 95.7484 37.8923 95.2801 37.8484 94.8191C37.724 93.3996 38.0313 91.5995 37.8996 90.1872C38.7192 90.7653 39.568 91.3507 40.5485 91.5629C41.529 91.7678 42.6779 91.497 43.2194 90.6482C43.7828 89.7628 43.5121 88.6066 43.2413 87.5968C40.9656 78.9989 40.3509 69.9765 41.4412 61.1517L41.3095 60.6687C40.0363 61.5907 38.5582 62.242 36.9849 62.6225C34.4165 63.2664 31.5993 63.2152 29.0528 62.5127C26.4917 61.8103 24.1429 60.6102 21.9403 59.1321L21.9184 59.1687C21.7354 61.4005 21.6403 63.625 21.633 65.8495C21.6257 68.1105 21.7208 70.3716 21.9037 72.6254C22.1013 75.0036 22.4013 77.3744 22.8111 79.7306C23.0672 81.2526 23.3745 82.7673 23.7184 84.282C23.8648 84.9333 24.0258 85.5919 24.2087 86.2358C24.5965 87.6261 25.0795 88.9798 25.7966 90.2311C26.0234 90.6262 26.2942 91.0287 26.5942 91.4312C27.6918 92.902 29.2358 94.3069 30.809 94.8264Z" fill="#CBDDFE"/>
<path d="M22.6202 91.7163L22.5617 91.8187C22.7227 93.6188 22.869 95.4189 22.9861 97.219C23.052 98.0824 23.1032 98.9532 23.1544 99.8167C23.3959 103.849 23.5422 107.888 23.5935 111.934V111.956L40.0869 111.876V111.861C38.682 111.268 37.2551 109.6 36.816 108.129C36.377 106.666 36.377 105.114 36.3843 103.585C36.3916 100.468 36.4063 97.3287 36.4063 97.3287H36.5892C36.1062 97.3287 35.616 97.0507 35.2208 96.736C35.0379 96.597 34.8623 96.4433 34.7013 96.2897C33.1866 96.5604 31.8548 95.8872 30.8084 94.8262C29.2352 94.3067 27.6912 92.9017 26.5936 91.4309L26.5204 91.4894C26.2643 91.7456 25.9716 91.9578 25.6277 92.1041C24.6325 92.5358 23.5788 92.2724 22.6202 91.7163Z" fill="#CBDDFE"/>
<path d="M27.8299 20.3572C25.7078 22.2744 23.7687 24.3745 21.9979 26.6063C26.3152 38.4093 33.9912 49.6415 44.1551 57.0321L44.3526 57.1345C45.7649 54.4051 45.9551 51.1562 45.9771 48.0609C45.9917 45.6755 45.9405 43.29 45.8015 40.9045L45.4283 40.9264C39.3256 34.2676 33.9546 26.2184 31.4593 17.54L31.4154 17.4814C30.1422 18.3888 28.9348 19.3547 27.8299 20.3572Z" fill="#F6143F"/>
<path d="M31.4167 17.4811L31.4606 17.5397C33.9558 26.2181 39.3268 34.2673 45.4295 40.9261L45.8027 40.9042C45.5686 36.3088 45.0564 31.7281 44.2807 27.1986C43.688 23.6936 42.8831 20.2544 42.0269 16.8079C41.6684 15.3517 41.1415 13.8883 40.7025 12.4028C37.5414 13.6395 34.3144 15.4103 31.4167 17.4811Z" fill="#F6143F"/>
<path d="M36.3838 103.585C36.3765 105.115 36.3765 106.666 36.8156 108.129C37.2546 109.6 38.6815 111.269 40.0864 111.861V111.876L51.9699 111.825V111.803C50.543 111.027 48.3332 108.525 48.4356 106.9C48.7576 101.624 49.0942 96.5826 49.4162 91.5921C49.8625 84.8966 50.3016 78.289 50.7333 71.3301C50.7918 70.4008 50.8504 69.4715 50.9089 68.5349C51.2089 63.7859 51.5089 58.9783 52.9212 54.4342C52.9797 54.2367 53.0456 54.0318 53.1188 53.8342C54.5018 49.6925 56.9238 45.7924 60.5167 43.363C60.6777 43.2532 60.8387 43.1434 61.007 43.041C66.8316 39.4189 74.3027 40.1726 80.8664 38.2042C81.4591 38.0286 82.0518 37.8091 82.608 37.5237C81.4225 37.6627 79.9444 36.9236 79.5054 35.9358C79.0736 34.9479 79.3151 33.704 80.0908 32.9503C80.8591 32.2039 82.3592 31.9185 83.7129 32.46C83.3324 32.1454 82.8568 31.8307 82.2787 31.4868C81.6055 31.0917 80.7932 30.3453 79.9005 29.3867C79.4176 30.2867 78.3346 31.2526 77.3102 31.2673C75.8467 31.3039 74.6686 30.1697 73.5563 29.2184C73.1319 28.8525 72.6929 28.5159 72.2538 28.2013C70.6733 27.0817 69.0049 26.2841 67.2853 25.6402C66.6853 25.4133 66.0852 25.2085 65.4779 25.0182C66.3121 27.8866 64.4681 31.0917 61.5118 31.7868C59.002 32.3722 56.1482 31.0039 55.1091 28.6403C54.1505 26.4817 54.8603 23.723 56.697 22.2742C56.0823 22.04 55.475 21.7766 54.8676 21.4839C54.714 21.4107 54.5603 21.3302 54.3993 21.2497C52.9505 20.518 51.4065 19.5887 50.2211 18.4033C49.4747 17.6642 48.86 16.83 48.4942 15.8934C47.8356 14.2397 47.3892 12.4688 47.1697 10.6688H47.1624C46.9648 9.08819 46.9356 7.47836 47.0965 5.91243C47.177 5.11483 47.3087 4.31723 47.2283 3.51963C47.1478 2.72204 46.8258 1.9098 46.1819 1.43417C45.216 0.717065 43.811 0.965858 42.7939 1.61711C40.7084 2.94156 39.7791 5.59046 39.8742 8.06375C39.9328 9.52723 40.2767 10.9761 40.7011 12.403C41.1402 13.8884 41.667 15.3519 42.0256 16.8081C42.8817 20.2546 43.6866 23.6938 44.2793 27.1988C45.055 31.7283 45.5672 36.309 45.8014 40.9043C45.9404 43.2898 45.9916 45.6753 45.977 48.0608C45.955 51.156 45.7648 54.405 44.3525 57.1344C44.2208 57.4051 44.0671 57.6685 43.9061 57.9246C43.211 59.0149 42.3256 59.9296 41.3085 60.6687L41.4402 61.1516C40.3499 69.9764 40.9646 78.9988 43.2403 87.5968C43.511 88.6066 43.7817 89.7627 43.2183 90.6481C42.6768 91.4969 41.528 91.7677 40.5475 91.5628C39.5669 91.3506 38.7181 90.7652 37.8985 90.1871C38.0303 91.5994 37.7229 93.3995 37.8473 94.8191C37.8912 95.2801 37.9351 95.7484 37.8254 96.202C37.7229 96.6557 37.4302 97.0948 36.9985 97.2557C36.8668 97.307 36.7278 97.3289 36.5887 97.3289H36.4058C36.4058 97.3289 36.3912 100.468 36.3838 103.585Z" fill="#CBDDFE"/>
<path d="M47.1704 10.6685C47.39 12.4686 47.8363 14.2394 48.4949 15.8931C48.8607 16.8298 49.4754 17.664 50.2218 18.403C50.2218 15.4687 51.0779 12.3223 52.9658 10.31C52.0219 10.2734 51.0779 10.2807 50.134 10.3392C49.3291 10.3831 47.968 10.5514 47.1704 10.6685Z" fill="#F6143F"/>
<path d="M49.4166 91.5918L49.5923 91.6064C53.7632 86.2939 55.6365 79.0278 55.8779 72.2811C54.2388 72.0616 52.6144 71.7469 51.0119 71.3445L50.7338 71.3298C50.3021 78.2887 49.863 84.8963 49.4166 91.5918Z" fill="#F6143F"/>
<path d="M50.2212 18.4031C51.4066 19.5885 52.9506 20.5179 54.3994 21.2496L54.4141 20.6935C55.9873 17.3275 58.3215 14.3273 61.2046 11.9784L61.2266 11.9199C61.0363 11.8467 60.8314 11.7735 60.6339 11.715C58.9216 11.1442 57.1434 10.7418 55.3434 10.5149V10.5076C54.5531 10.4125 53.7628 10.3466 52.9652 10.3101C51.0773 12.3223 50.2212 15.4688 50.2212 18.4031Z" fill="#F6143F"/>
<path d="M84.1011 64.7517H84.1084C86.8744 64.7517 89.5599 63.2443 91.1771 61.393H91.1844C91.0161 60.0978 90.4892 58.7514 89.5745 57.5294C90.4892 57.1635 91.3673 56.7318 92.1356 56.2342C92.6113 55.9196 93.1089 55.5317 93.2406 54.9756C93.3869 54.3097 92.9405 53.6292 92.3405 53.2999C91.7478 52.9706 91.0453 52.9194 90.3648 52.9048C84.1231 52.7218 78.0203 54.5219 71.8737 55.5976C68.954 56.1098 65.9246 56.4391 62.9611 56.3293C59.6682 56.2049 56.4632 55.5391 53.5728 53.9804L53.1192 53.8341C53.046 54.0317 52.9801 54.2365 52.9216 54.4341C51.5093 58.9782 51.2093 63.7858 50.9093 68.5348C50.8508 69.4714 50.7922 70.4007 50.7337 71.33L51.0117 71.3447C52.6143 71.7471 54.2387 72.0618 55.8778 72.2813C65.7051 73.6277 75.9715 71.7691 84.6499 66.9615L84.7597 66.881C84.5182 66.5371 84.3499 66.142 84.2475 65.7322C84.167 65.4103 84.1231 65.081 84.1011 64.7517Z" fill="#CBDDFE"/>
<path d="M53.1191 53.8343L53.5728 53.9806C56.4632 55.5392 59.6682 56.2051 62.9611 56.3295L62.9757 55.9563C63.1733 51.7708 62.3976 47.5413 60.7366 43.6923L60.517 43.363C56.9242 45.7924 54.5021 49.6926 53.1191 53.8343Z" fill="#F6143F"/>
<path d="M54.4151 20.6935L54.4005 21.2496C54.5615 21.3301 54.7151 21.4106 54.8688 21.4838C55.4761 21.7765 56.0835 22.0399 56.6981 22.2741C58.1763 22.8595 59.669 23.3205 61.1544 23.7449L61.2203 23.5107C62.3764 20.2398 64.3887 17.269 67.0084 14.9932L67.0889 14.8835C65.2815 13.6468 63.3058 12.659 61.2276 11.9199L61.2057 11.9785C58.3226 14.3274 55.9883 17.3275 54.4151 20.6935Z" fill="#F6143F"/>
<path d="M56.6976 22.2739C54.8609 23.7228 54.1511 26.4814 55.1097 28.6401C56.1487 31.0036 59.0025 32.372 61.5124 31.7866C64.4686 31.0914 66.3126 27.8864 65.4785 25.018C64.0589 24.557 62.6027 24.1691 61.1539 23.7447C59.6684 23.3203 58.1757 22.8593 56.6976 22.2739ZM58.6806 26.6644C58.6806 25.5302 59.6026 24.6155 60.7368 24.6155C61.871 24.6155 62.7856 25.5302 62.7856 26.6644C62.7856 27.7986 61.871 28.7206 60.7368 28.7206C59.6026 28.7206 58.6806 27.7986 58.6806 26.6644Z" fill="white"/>
<path d="M55.3449 10.5078V10.5151C57.1449 10.7419 58.9231 11.1444 60.6353 11.7151L60.6792 11.5761C61.7915 9.61504 62.9038 7.64665 64.016 5.67827C64.4111 4.97579 64.8209 4.1782 64.6307 3.39523C64.4477 2.66349 63.7818 2.15127 63.0794 1.86589C61.0817 1.05366 58.5572 1.84394 57.3718 3.65134C56.1205 5.55387 55.8059 8.27595 55.3449 10.5078Z" fill="#CBDDFE"/>
<path d="M60.7373 24.6157C59.6031 24.6157 58.6811 25.5304 58.6811 26.6646C58.6811 27.7988 59.6031 28.7208 60.7373 28.7208C61.8715 28.7208 62.7861 27.7988 62.7861 26.6646C62.7861 25.5304 61.8715 24.6157 60.7373 24.6157Z" fill="#1A1564"/>
<path d="M65.4783 25.0179C66.0857 25.2082 66.6857 25.4131 67.2857 25.6399C68.3687 23.1081 70.2273 21.1177 72.6201 20.1957C72.4811 20.0128 72.3494 19.8372 72.2103 19.6616C70.7615 17.8029 69.02 16.2004 67.0882 14.8833L67.0077 14.9931C64.388 17.2688 62.3757 20.2397 61.2196 23.5105L61.1537 23.7447C62.6026 24.1691 64.0587 24.5569 65.4783 25.0179Z" fill="#F6143F"/>
<path d="M72.6208 20.1958C70.228 21.1178 68.3693 23.1081 67.2864 25.64C69.006 26.2839 70.6743 27.0815 72.2549 28.2011C73.1257 27.0376 75.0209 25.3765 76.4697 25.2375C75.1599 23.5545 73.8355 21.7764 72.6208 20.1958Z" fill="#F6143F"/>
<path d="M72.2547 28.2009C72.6937 28.5155 73.1328 28.8521 73.5572 29.218C74.6694 30.1692 75.8475 31.3034 77.311 31.2669C78.3354 31.2522 79.4184 30.2863 79.9014 29.3863C78.8403 28.2374 77.6622 26.7813 76.4695 25.2373C75.0206 25.3763 73.1254 27.0374 72.2547 28.2009Z" fill="#F6143F"/>
<path d="M80.0916 32.9504C79.3159 33.7041 79.0744 34.948 79.5062 35.9359C79.9452 36.9237 81.4233 37.6628 82.6088 37.5238C83.5088 37.0628 84.2845 36.4262 84.665 35.5042C85.1406 34.3773 84.943 33.4699 83.721 32.4674L83.7137 32.4601C82.36 31.9186 80.8599 32.204 80.0916 32.9504Z" fill="#FF8987"/>
<path d="M84.1084 64.752H84.101C84.123 65.0813 84.1669 65.4106 84.2474 65.7325C84.3498 66.1423 84.5181 66.5375 84.7596 66.8814C84.9791 67.196 85.2572 67.4668 85.6011 67.6424C86.3548 68.0375 87.2768 67.957 88.0598 67.6424C89.772 66.9472 90.9209 65.2057 91.1843 63.3836C91.2721 62.7544 91.2794 62.0811 91.1843 61.3933H91.177C89.5598 63.2446 86.8743 64.752 84.1084 64.752Z" fill="#CBDDFE"/>
<path d="M61.8564 111.774L51.9706 111.825L40.0871 111.876L23.5937 111.957L14.8201 112.001" stroke="#1A1564" stroke-width="1.38751" stroke-linecap="round" stroke-linejoin="round"/>
<path d="M83.721 32.4673C84.943 33.4698 85.1406 34.3771 84.665 35.504C84.2845 36.426 83.5088 37.0626 82.6088 37.5236C82.0526 37.809 81.4599 38.0285 80.8672 38.2041C74.3035 40.1725 66.8324 39.4188 61.0078 43.041C60.8395 43.1434 60.6785 43.2532 60.5175 43.3629C56.9246 45.7923 54.5026 49.6925 53.1196 53.8341C53.0464 54.0317 52.9805 54.2366 52.922 54.4342C51.5097 58.9783 51.2097 63.7858 50.9097 68.5348C50.8512 69.4715 50.7926 70.4008 50.7341 71.3301C50.3024 78.289 49.8633 84.8966 49.417 91.592C49.095 96.5825 48.7584 101.624 48.4364 106.9C48.334 108.525 50.5438 111.027 51.9707 111.803" stroke="#1A1564" stroke-width="1.38751" stroke-linecap="round" stroke-linejoin="round"/>
<path d="M55.3433 10.5151C57.1434 10.742 58.9215 11.1444 60.6338 11.7152C60.8313 11.7737 61.0362 11.8469 61.2265 11.9201C63.3046 12.6591 65.2803 13.647 67.0877 14.8836C69.0195 16.2008 70.7611 17.8033 72.2099 19.6619C72.3489 19.8375 72.4807 20.0131 72.6197 20.1961C73.8344 21.7766 75.1588 23.5548 76.4686 25.2378C77.6614 26.7818 78.8395 28.2379 79.9005 29.3868C80.7932 30.3453 81.6055 31.0917 82.2787 31.4868C82.8568 31.8308 83.3324 32.1454 83.7129 32.4601" stroke="#1A1564" stroke-width="1.38751" stroke-linecap="round" stroke-linejoin="round"/>
<path d="M47.1702 10.6685C47.9678 10.5514 49.3288 10.3831 50.1338 10.3392C51.0777 10.2807 52.0216 10.2734 52.9656 10.31C53.7632 10.3465 54.5535 10.4124 55.3438 10.5075" stroke="#1A1564" stroke-width="1.38751" stroke-linecap="round" stroke-linejoin="round"/>
<path d="M79.9014 29.3867C79.4184 30.2867 78.3354 31.2526 77.311 31.2673C75.8475 31.3039 74.6694 30.1697 73.5572 29.2184C73.1328 28.8525 72.6937 28.5159 72.2547 28.2013C70.6741 27.0817 69.0057 26.2841 67.2861 25.6402C66.6861 25.4133 66.0861 25.2085 65.4787 25.0182C64.0592 24.5572 62.603 24.1694 61.1541 23.745C59.6687 23.3206 58.176 22.8596 56.6978 22.2742C56.0832 22.04 55.4758 21.7766 54.8685 21.4839C54.7148 21.4107 54.5612 21.3302 54.4002 21.2497C52.9513 20.518 51.4073 19.5887 50.2219 18.4033C49.4755 17.6642 48.8609 16.83 48.495 15.8934C47.8364 14.2397 47.3901 12.4688 47.1706 10.6688H47.1632C46.9657 9.08819 46.9364 7.47836 47.0974 5.91243C47.1779 5.11483 47.3096 4.31723 47.2291 3.51964C47.1486 2.72204 46.8266 1.9098 46.1827 1.43417C45.2168 0.717065 43.8119 0.965858 42.7948 1.61711C40.7093 2.94156 39.78 5.59046 39.8751 8.06375C39.9336 9.52723 40.2776 10.9761 40.702 12.403C41.141 13.8884 41.6679 15.3519 42.0264 16.8081C42.8826 20.2546 43.6875 23.6938 44.2802 27.1988C45.0558 31.7283 45.5681 36.309 45.8022 40.9043C45.9412 43.2898 45.9925 45.6753 45.9778 48.0608C45.9559 51.156 45.7656 54.405 44.3534 57.1344C44.2216 57.4051 44.068 57.6685 43.907 57.9246C43.2118 59.0149 42.3264 59.9296 41.3093 60.6687C40.0361 61.5907 38.558 62.2419 36.9847 62.6224C34.4163 63.2664 31.5991 63.2151 29.0526 62.5127C26.4915 61.8102 24.1427 60.6101 21.9401 59.132C19.5254 57.5222 17.2862 55.5904 15.1203 53.6586C14.1836 52.8171 13.2251 51.939 12.5226 50.8999C12.3031 50.5633 12.0982 50.2121 11.9372 49.8389C10.6347 46.8461 11.9518 43.4142 13.3934 40.4945C13.5836 40.114 13.7739 39.7262 13.9714 39.3457C16.2398 34.8675 18.8741 30.5282 21.9986 26.6061C23.7695 24.3743 25.7086 22.2742 27.8306 20.357C28.9356 19.3545 30.1429 18.3886 31.4162 17.4813C34.3139 15.4104 37.5408 13.6396 40.702 12.403" stroke="#1A1564" stroke-width="1.38751" stroke-linecap="round" stroke-linejoin="round"/>
<path d="M60.6792 11.5761C61.7915 9.61504 62.9038 7.64665 64.016 5.67827C64.4111 4.97579 64.8209 4.1782 64.6307 3.39523C64.4477 2.66349 63.7818 2.15127 63.0794 1.86589C61.0817 1.05366 58.5572 1.84394 57.3718 3.65134C56.1205 5.55387 55.8059 8.27595 55.3449 10.5078V10.5151" stroke="#1A1564" stroke-width="1.38751" stroke-linecap="round" stroke-linejoin="round"/>
<path d="M65.4785 25.0106V25.018C66.3126 27.8864 64.4686 31.0914 61.5124 31.7866C59.0025 32.372 56.1487 31.0036 55.1097 28.6401C54.1511 26.4814 54.8609 23.7228 56.6976 22.2739" stroke="#1A1564" stroke-width="1.38751" stroke-linecap="round" stroke-linejoin="round"/>
<path d="M70.5635 40.0119C69.0634 39.6753 67.0438 38.4679 66.034 37.3044" stroke="#1A1564" stroke-width="1.38751" stroke-linecap="round" stroke-linejoin="round"/>
<path d="M83.7207 32.4674L83.7134 32.4601C82.3597 31.9186 80.8596 32.204 80.0913 32.9504C79.3156 33.7041 79.0741 34.948 79.5059 35.9359C79.9449 36.9237 81.423 37.6628 82.6085 37.5238" stroke="#1A1564" stroke-width="1.38751" stroke-linecap="round" stroke-linejoin="round"/>
<path d="M41.4412 61.1516C40.3509 69.9764 40.9656 78.9988 43.2413 87.5968C43.5121 88.6066 43.7828 89.7627 43.2194 90.6481C42.6779 91.4969 41.529 91.7677 40.5485 91.5628C39.568 91.3506 38.7192 90.7652 37.8996 90.1871C38.0313 91.5994 37.724 93.3995 37.8484 94.8191C37.8923 95.2801 37.9362 95.7484 37.8264 96.202C37.724 96.6557 37.4313 97.0948 36.9996 97.2557C36.8678 97.307 36.7288 97.3289 36.5898 97.3289C36.1068 97.3289 35.6166 97.0509 35.2214 96.7362C35.0385 96.5972 34.8629 96.4435 34.7019 96.2899C33.6043 95.2581 32.8067 93.9044 32.4481 92.4482" stroke="#1A1564" stroke-width="1.38751" stroke-linecap="round" stroke-linejoin="round"/>
<path d="M34.7012 96.2898C33.1865 96.5605 31.8547 95.8873 30.8083 94.8263C29.7546 93.7653 29.0009 92.3091 28.6424 91.0212" stroke="#1A1564" stroke-width="1.38751" stroke-linecap="round" stroke-linejoin="round"/>
<path d="M30.8086 94.8265C29.2353 94.3069 27.6914 92.902 26.5938 91.4312C26.2938 91.0287 26.023 90.6263 25.7962 90.2311C25.0791 88.9799 24.5961 87.6261 24.2083 86.2358C24.0253 85.5919 23.8644 84.9333 23.718 84.2821C23.3741 82.7674 23.0668 81.2527 22.8107 79.7306C22.4009 77.3744 22.1009 75.0036 21.9033 72.6254C21.7204 70.3717 21.6252 68.1106 21.6325 65.8495C21.6399 63.625 21.735 61.4005 21.9179 59.1687" stroke="#1A1564" stroke-width="1.38751" stroke-linecap="round" stroke-linejoin="round"/>
<path d="M12.5077 50.9148C11.3296 54.0027 10.5832 57.2444 10.2685 60.5299C9.96851 63.5227 10.0344 66.5448 10.4661 69.523C10.5759 70.262 10.7003 71.0011 10.8539 71.7329C11.3808 74.2574 12.1784 76.7306 13.2248 79.0942C14.4029 81.7943 15.9103 84.3554 17.703 86.7043C18.0103 87.1067 18.325 87.5092 18.6543 87.897C19.2982 88.68 19.9714 89.4337 20.6812 90.1581C21.2373 90.7289 21.9032 91.3069 22.6203 91.7167C23.5789 92.2728 24.6326 92.5363 25.6278 92.1045C25.9717 91.9582 26.2644 91.746 26.5205 91.4899" stroke="#1A1564" stroke-width="1.38751" stroke-linecap="round" stroke-linejoin="round"/>
<path d="M22.563 91.8191C22.724 93.6192 22.8703 95.4193 22.9874 97.2193C23.0532 98.0828 23.1045 98.9536 23.1557 99.817C23.3972 103.849 23.5435 107.888 23.5947 111.935" stroke="#1A1564" stroke-width="1.38751" stroke-linecap="round" stroke-linejoin="round"/>
<path d="M40.0869 111.861C38.682 111.269 37.2551 109.6 36.816 108.129C36.377 106.666 36.377 105.115 36.3843 103.585C36.3916 100.468 36.4063 97.3289 36.4063 97.3289" stroke="#1A1564" stroke-width="1.38751" stroke-linecap="round" stroke-linejoin="round"/>
<path d="M23.1543 99.8172C21.4786 101.266 19.598 102.481 17.5931 103.439C14.9076 104.749 11.9879 105.605 9.00973 106C6.57303 106.33 4.10706 106.352 1.69231 106.052C1.45816 106.022 1.20205 105.971 1.07765 105.781C0.79959 105.386 1.32645 104.932 1.75818 104.72C5.8852 102.729 9.53659 99.9123 12.3977 96.4585C13.8978 94.6511 15.1783 92.6754 16.1954 90.546C16.7881 89.3167 17.293 88.0288 17.7028 86.7043" stroke="#1A1564" stroke-width="1.38751" stroke-linecap="round" stroke-linejoin="round"/>
<path d="M9.08398 105.825C9.06786 105.804 9.05226 105.79 9.04343 105.769C8.08424 104.632 7.47858 103.2 7.33127 101.714" stroke="#1A1564" stroke-width="1.38751" stroke-linecap="round" stroke-linejoin="round"/>
<path d="M17.9385 103.271C15.7359 101.88 13.2386 98.9676 12.5435 96.4578" stroke="#1A1564" stroke-width="1.38751" stroke-linecap="round" stroke-linejoin="round"/>
<path d="M22.9648 97.2192C20.3891 95.3972 18.128 93.1434 16.284 90.5896" stroke="#1A1564" stroke-width="1.38751" stroke-linecap="round" stroke-linejoin="round"/>
<path d="M53.5729 53.9804C56.4632 55.5391 59.6683 56.2049 62.9611 56.3293C65.9247 56.4391 68.9541 56.1098 71.8737 55.5976C78.0203 54.5219 84.1231 52.7218 90.3648 52.9048C91.0453 52.9194 91.7478 52.9706 92.3405 53.2999C92.9405 53.6292 93.3869 54.3097 93.2406 54.9756C93.1089 55.5317 92.6113 55.9196 92.1356 56.2342C91.3673 56.7318 90.4892 57.1635 89.5745 57.5294C88.5794 57.9318 87.5476 58.2465 86.5817 58.4733" stroke="#1A1564" stroke-width="1.38751" stroke-linecap="round" stroke-linejoin="round"/>
<path d="M84.6211 57.5295C86.0626 58.0344 87.3798 58.8833 88.4335 59.9809C88.9677 60.537 89.4652 61.3419 89.1433 62.0444C88.8579 62.6664 88.0823 62.8786 87.3944 62.9371C85.6821 63.0908 83.926 62.7688 82.3747 62.0151" stroke="#1A1564" stroke-width="1.38751" stroke-linecap="round" stroke-linejoin="round"/>
<path d="M89.5745 57.5295C90.4891 58.7515 91.016 60.098 91.1843 61.3931C91.2794 62.081 91.2721 62.7542 91.1843 63.3835C90.9209 65.2055 89.772 66.9471 88.0598 67.6422C87.2768 67.9569 86.3548 68.0373 85.6011 67.6422C85.2572 67.4666 84.9791 67.1958 84.7596 66.8812C84.5181 66.5373 84.3498 66.1421 84.2474 65.7324C84.1669 65.4104 84.123 65.0811 84.101 64.7518C84.0718 64.2762 84.0937 63.8006 84.1157 63.3249" stroke="#1A1564" stroke-width="1.38751" stroke-linecap="round" stroke-linejoin="round"/>
<path d="M84.6504 66.9617C75.9719 71.7692 65.7056 73.6278 55.8783 72.2814C54.2392 72.0619 52.6147 71.7473 51.0122 71.3448" stroke="#1A1564" stroke-width="1.38751" stroke-linecap="round" stroke-linejoin="round"/>
<path d="M60.7366 43.6921C62.3976 47.5411 63.1733 51.7706 62.9757 55.9561" stroke="#1A1564" stroke-width="1.38751" stroke-linecap="round" stroke-linejoin="round"/>
<path d="M49.5923 91.6068C53.7632 86.2943 55.6365 79.0282 55.8779 72.2815" stroke="#1A1564" stroke-width="1.38751" stroke-linecap="round" stroke-linejoin="round"/>
<path d="M76.4697 25.2373C75.0209 25.3763 73.1257 27.0374 72.2549 28.2009" stroke="#1A1564" stroke-width="1.38751" stroke-linecap="round" stroke-linejoin="round"/>
<path d="M72.6201 20.1958C70.2273 21.1178 68.3687 23.1081 67.2857 25.64" stroke="#1A1564" stroke-width="1.38751" stroke-linecap="round" stroke-linejoin="round"/>
<path d="M67.0068 14.9932C64.3872 17.2689 62.3749 20.2398 61.2188 23.5106" stroke="#1A1564" stroke-width="1.38751" stroke-linecap="round" stroke-linejoin="round"/>
<path d="M61.2051 11.9785C58.322 14.3274 55.9878 17.3275 54.4145 20.6936" stroke="#1A1564" stroke-width="1.38751" stroke-linecap="round" stroke-linejoin="round"/>
<path d="M52.9658 10.3101C51.0779 12.3223 50.2218 15.4688 50.2218 18.4031" stroke="#1A1564" stroke-width="1.38751" stroke-linecap="round" stroke-linejoin="round"/>
<path d="M14.2345 39.4778C18.8591 48.8733 27.984 57.2737 36.9844 62.6228" stroke="#1A1564" stroke-width="1.38751" stroke-linecap="round" stroke-linejoin="round"/>
<path d="M21.9991 26.606C26.3164 38.409 33.9924 49.6412 44.1562 57.0318" stroke="#1A1564" stroke-width="1.38751" stroke-linecap="round" stroke-linejoin="round"/>
<path d="M31.4598 17.54C33.955 26.2185 39.326 34.2677 45.4287 40.9265" stroke="#1A1564" stroke-width="1.38751" stroke-linecap="round" stroke-linejoin="round"/>
<path d="M21.6328 65.8493C17.8131 64.5103 14.1471 62.7175 10.6786 60.5662" stroke="#1A1564" stroke-width="1.38751" stroke-linecap="round" stroke-linejoin="round"/>
<path d="M21.9033 72.6253C17.9592 72.2448 14.0883 71.1984 10.4662 69.5227" stroke="#1A1564" stroke-width="1.38751" stroke-linecap="round" stroke-linejoin="round"/>
<path d="M22.8037 79.7305C19.6792 80.2354 16.4302 80.0013 13.4228 79.0061" stroke="#1A1564" stroke-width="1.38751" stroke-linecap="round" stroke-linejoin="round"/>
<path d="M24.2012 86.2356C22.5474 86.9015 20.7839 87.3478 18.8814 87.7137" stroke="#1A1564" stroke-width="1.38751" stroke-linecap="round" stroke-linejoin="round"/>
<path d="M58.6811 26.6646C58.6811 27.7988 59.6031 28.7208 60.7373 28.7208C61.8715 28.7208 62.7861 27.7988 62.7861 26.6646C62.7861 25.5304 61.8715 24.6157 60.7373 24.6157C59.6031 24.6157 58.6811 25.5304 58.6811 26.6646Z" stroke="#1A1564" stroke-width="1.38751" stroke-linecap="round" stroke-linejoin="round"/>
<path d="M91.1777 61.3933C89.5606 63.2446 86.8751 64.752 84.1091 64.752" stroke="#1A1564" stroke-width="1.38751" stroke-linecap="round" stroke-linejoin="round"/>
<path d="M61.9365 26.0133L61.8048 25.6401" stroke="white" stroke-width="1.38751" stroke-linecap="round" stroke-linejoin="round"/>
<path d="M61.2266 4.77099C60.7726 4.64332 60.2746 4.78312 59.8847 5.04854C59.4949 5.31396 59.1976 5.69324 58.9311 6.08235C57.8901 7.6023 57.5381 9.69815 57.3349 10.7231" stroke="#1A1564" stroke-width="1.38751" stroke-linecap="round" stroke-linejoin="round"/>
<path d="M44.4443 10.1797L42.8333 10.9093C42.2287 8.69216 42.1287 5.6684 43.4443 4.5376" stroke="#1A1564" stroke-width="1.38751" stroke-linecap="round" stroke-linejoin="round"/>
<path d="M254.052 38.1834V15.4597H258.348V34.574H268.692L268.009 38.1834H254.052Z" fill="#F6143F"/>
<path d="M282.639 38.1834L280.678 31.8192H273.347L271.324 38.1834H266.938L273.835 15.4597H280.248L287.146 38.1834H282.639ZM277.946 22.0368C277.614 20.8587 277.347 19.663 277.148 18.4552H276.873C276.629 19.6892 276.415 20.9016 276.078 22.0368L274.145 28.3054H279.849L277.946 22.0368Z" fill="#F6143F"/>
<path d="M294.731 38.3653C292.123 38.3653 291.019 38.3036 288.136 38.1833V15.4596C291.149 15.3362 292.256 15.2776 294.864 15.2776C300.967 15.2776 304.737 16.3481 304.737 21.4475V21.722C304.737 23.681 303.877 25.5751 301.854 26.4944C304.001 27.3798 304.864 29.3388 304.864 31.2946V31.6031C304.864 37.2886 300.629 38.3591 294.74 38.3591L294.731 38.3653ZM300.568 21.6017C300.568 19.0011 298.511 18.7852 294.864 18.7852H292.318V24.9396H296.184C299.708 24.9396 300.568 23.7797 300.568 21.8824V21.6017ZM300.657 31.2668C300.629 29.2771 299.708 28.0246 296.212 28.0246H292.318V34.8423H293.493C298.158 34.8423 300.67 34.8114 300.67 31.6031L300.657 31.2668Z" fill="#F6143F"/>
<path d="M314.905 38.6738C311.929 38.6738 308.861 38.2759 307.725 37.9705V34.6974C309.998 34.9338 312.282 35.0522 314.568 35.0521C317.327 35.0521 318.645 34.284 318.645 32.2356C318.645 30.7702 318.063 29.9435 315.793 28.9964L312.362 27.602C308.987 26.2261 307.175 24.298 307.175 20.994C307.172 16.5887 309.937 15 315.332 15C317.571 15.0005 319.803 15.2467 321.988 15.7342V18.9765C320.241 18.8222 317.908 18.5816 315.517 18.5816C312.848 18.5816 311.406 19.0382 311.406 20.8706C311.406 22.2496 312.05 22.953 314.32 23.8692L317.413 25.1248C321.404 26.7444 322.981 28.3671 322.981 32.2201C322.981 36.3478 320.009 38.6738 314.886 38.6738" fill="#F6143F"/>
<path d="M98 38.1865L103.367 28.9317C100.945 27.8797 99.4384 26.075 99.4384 22.6168V22.404C99.4384 16.4068 103.979 15.3086 109.47 15.3086C111.771 15.3086 113.828 15.3672 115.848 15.4598V38.1865H111.678V29.8078H109.559C108.854 29.8078 108.18 29.8078 107.567 29.777L102.541 38.1865H98ZM103.642 22.6477C103.642 25.5845 105.39 26.4113 109.315 26.4113C110.11 26.4113 110.88 26.4113 111.678 26.3774V18.9149C106.111 18.9149 103.636 18.9488 103.636 22.4657L103.642 22.6477Z" fill="black"/>
<path d="M118.685 38.1834V15.4597H133.192V19.0105H122.978V24.7886H132.545V28.216H122.978V34.6697H133.192V38.1834H118.685Z" fill="black"/>
<path d="M145.043 38.1834H138.788L131.918 15.4597H136.332L141.028 31.2114C141.424 32.5287 141.646 34.0866 141.956 35.2805H142.014C142.262 34.0465 142.537 32.5287 142.942 31.2114L147.619 15.4597H151.95L145.043 38.1834Z" fill="black"/>
<path d="M153.128 38.1834V15.4597H167.638V19.0105H157.424V24.7886H166.989V28.216H157.424V34.6697H167.638V38.1834H153.128Z" fill="black"/>
<path d="M183.439 38.1834L178.425 29.7739C177.806 29.8047 177.135 29.8047 176.433 29.8047H174.314V38.1834H170.129V15.4598C172.152 15.3672 174.209 15.3086 176.507 15.3086C181.998 15.3086 186.539 16.4068 186.539 22.404V22.6199C186.539 26.0781 185.035 27.8828 182.61 28.9194L187.98 38.1742L183.439 38.1834ZM182.335 22.4657C182.335 18.9457 179.882 18.9149 174.292 18.9149V26.3805C175.09 26.4113 175.858 26.4113 176.656 26.4113C180.581 26.4113 182.329 25.5845 182.329 22.6477L182.335 22.4657Z" fill="black"/>
<path d="M196.196 38.6769C193.22 38.6769 190.155 38.2759 189.019 37.9705V34.6974C191.291 34.9354 193.574 35.0538 195.859 35.0521C198.621 35.0521 199.935 34.2871 199.935 32.2387C199.935 30.7702 199.354 29.9435 197.087 28.9964L193.65 27.5927C190.278 26.2138 188.469 24.2888 188.469 20.9848C188.469 16.5918 191.228 15 196.623 15C198.863 14.9996 201.097 15.2468 203.282 15.7373V18.9765C201.532 18.8253 199.202 18.5816 196.811 18.5816C194.142 18.5816 192.697 19.0413 192.697 20.8737C192.697 22.2496 193.344 22.953 195.611 23.8723L198.704 25.1248C202.688 26.7444 204.272 28.3671 204.272 32.2201C204.272 36.3478 201.3 38.6769 196.177 38.6769" fill="black"/>
<path d="M210.452 15.4597H206.158V38.1865H210.452V15.4597Z" fill="black"/>
<path d="M226.652 38.1834L219.352 24.696C218.798 23.6564 218.158 22.4348 217.635 21.3026H217.573C217.635 22.5859 217.697 23.9927 217.697 25.3716V38.1834H213.771V15.4597H218.739L226.008 28.6725C226.559 29.7122 227.264 31.0294 227.756 32.1307H227.815C227.722 30.7826 227.694 29.1908 227.694 27.8118V15.4597H231.65V38.1834H226.652Z" fill="black"/>
<path d="M243.637 38.6769C238.434 38.6769 234.104 36.6563 234.104 28.4257V25.2173C234.104 16.5425 239.003 15 243.727 15C247.07 15 250.349 15.5522 251.058 15.7682V19.0413C249.588 18.9148 246.028 18.7328 244.463 18.7328C240.751 18.7328 238.36 19.5595 238.36 25.2112V28.4195C238.36 33.6238 240.259 34.938 243.943 34.938C245.078 34.938 246.214 34.9071 247.009 34.8454V29.3296H245.264V26.0749H251.085V37.9705C248.632 38.4476 246.137 38.6843 243.637 38.6769Z" fill="black"/>
<path d="M124.03 59.195L123.17 58.8525C121.855 58.3374 121.475 58.1461 121.475 57.4612C121.475 56.7023 122.025 56.5882 123.331 56.5882C124.259 56.5882 125.446 56.6622 126.65 56.7764V55.0272C125.55 54.7593 124.423 54.6186 123.29 54.6077C120.429 54.6077 119 55.3696 119 57.5199C119 59.1765 119.928 60.0896 121.957 60.8886L122.777 61.2125C124.361 61.8295 124.685 62.03 124.685 62.755C124.685 63.48 124.265 63.8779 122.7 63.8779C121.326 63.8779 119.705 63.6681 119.152 63.6311V65.4204C120.353 65.6957 121.581 65.8354 122.814 65.8369C125.811 65.8369 127.166 64.6214 127.166 62.6038C127.138 60.8485 126.337 60.1266 124.03 59.195Z" fill="black"/>
<path d="M133.703 54.6077C130.495 54.6077 128.855 56.3599 128.855 59.957V60.6202C128.855 64.39 130.229 65.8646 134.114 65.8646C135.456 65.867 136.794 65.7138 138.101 65.4081V63.5232C136.691 63.6558 135.354 63.77 134.228 63.77C131.596 63.77 131.367 62.7612 131.367 61.2033V61.012H138.559V60.1729C138.547 56.9306 137.288 54.6077 133.703 54.6077ZM136.029 59.3832H131.373V59.2135C131.373 57.9949 131.683 56.6252 133.703 56.6252C135.781 56.6252 136.029 57.9764 136.029 59.2135V59.3832Z" fill="black"/>
<path d="M140.459 59.5557V60.9069C140.459 64.1214 141.888 65.8737 144.978 65.8737C146.098 65.8829 147.215 65.7482 148.3 65.4726V63.5692C146.946 63.6834 146.008 63.742 145.417 63.742C143.852 63.742 142.974 63.2083 142.974 60.9069V59.5557C142.974 57.2328 143.852 56.7392 145.417 56.7392C146.008 56.7392 146.946 56.7978 148.3 56.9119V55.0085C147.217 54.7234 146.099 54.5885 144.978 54.6075C141.885 54.6075 140.459 56.2826 140.459 59.5557Z" fill="black"/>
<path d="M157.261 63.0387C156.116 63.4768 155.179 63.7606 154.455 63.7606C153.196 63.7606 152.909 63.2084 152.909 61.6875V54.876H150.409V61.6875C150.409 63.8933 150.827 65.8738 153.632 65.8738C154.87 65.8738 156.076 65.4172 157.344 64.7324V65.5931H159.766V54.876H157.248L157.261 63.0387Z" fill="black"/>
<path d="M164.947 54.8761H162.562V65.5931H165.062V57.5723C166.19 57.1274 167.394 56.9033 168.607 56.9121V54.6077C167.274 54.6077 165.956 54.8575 164.944 55.7491L164.947 54.8761Z" fill="black"/>
<path d="M174.447 54.6077C171.242 54.6077 169.603 56.3599 169.603 59.957V60.6202C169.603 64.39 170.976 65.8646 174.861 65.8646C176.203 65.867 177.541 65.7138 178.848 65.4081V63.5232C177.435 63.6558 176.101 63.77 174.976 63.77C172.343 63.77 172.114 62.7612 172.114 61.2033V61.012H179.306V60.1729C179.294 56.9306 178.035 54.6077 174.447 54.6077ZM176.776 59.3832H172.12V59.2135C172.12 57.9949 172.43 56.6252 174.447 56.6252C176.528 56.6252 176.776 57.9764 176.776 59.2135V59.3832Z" fill="black"/>
<path d="M186.043 62.6562H183.507V65.5869H186.043V62.6562Z" fill="black"/>
<path d="M195.24 59.195L194.383 58.8525C193.065 58.3374 192.682 58.1461 192.682 57.4612C192.682 56.7023 193.235 56.5882 194.538 56.5882C195.466 56.5882 196.653 56.6622 197.857 56.7764V55.0272C196.757 54.7593 195.63 54.6186 194.497 54.6077C191.636 54.6077 190.207 55.3696 190.207 57.5199C190.207 59.1765 191.135 60.0896 193.164 60.8886L193.972 61.2125C195.555 61.8295 195.88 62.03 195.88 62.755C195.88 63.48 195.459 63.8779 193.894 63.8779C192.521 63.8779 190.9 63.6681 190.346 63.6311V65.4204C191.548 65.6957 192.776 65.8354 194.009 65.8369C197.006 65.8369 198.361 64.6214 198.361 62.6038C198.348 60.8485 197.547 60.1266 195.24 59.195Z" fill="black"/>
<path d="M204.913 54.6077C201.782 54.6077 200.065 56.2057 200.065 59.5744V60.8886C200.065 64.282 201.782 65.8739 204.913 65.8739C208.043 65.8739 209.747 64.2759 209.747 60.8886V59.5744C209.747 56.2057 208.04 54.6077 204.913 54.6077ZM207.273 60.8886C207.273 62.9432 206.567 63.7237 204.928 63.7237C203.289 63.7237 202.58 62.9432 202.58 60.8886V59.5744C202.58 57.5199 203.304 56.7579 204.928 56.7579C206.552 56.7579 207.273 57.5199 207.273 59.5744V60.8886Z" fill="black"/>
<path d="M237.911 60.6571C237.719 61.5278 237.592 62.4115 237.53 63.3009H237.435C237.206 62.4649 236.995 61.5302 236.729 60.6756L235.316 56.2025H232.222L230.812 60.6756C230.543 61.5302 230.335 62.4649 230.103 63.3009H230.011C229.953 62.412 229.831 61.5284 229.646 60.6571L228.446 54.8728H222.228V52.1519H219.71V54.8728H215.194V53.8826C215.194 52.7782 215.25 52.3586 216.301 52.3586C216.855 52.3586 217.443 52.3987 217.981 52.4172V50.8192C217.227 50.6207 216.45 50.5171 215.67 50.5107C213.196 50.5107 212.654 51.8805 212.654 53.8425V54.8698H210.768V56.7207L212.654 56.8935V65.593H215.194V56.8935H219.71V62.7919C219.71 65.0346 220.552 65.8768 222.667 65.8768C223.399 65.8618 224.126 65.7582 224.833 65.5683V63.8562C224.523 63.8932 223.765 63.9302 223.212 63.9302C222.284 63.9302 222.219 63.7421 222.219 62.7518V56.8904H226.324L228.238 65.593H231.502L233.178 60.3486C233.417 59.6437 233.602 58.9218 233.732 58.1892H233.809C233.937 58.9223 234.122 59.6443 234.363 60.3486L236.039 65.593H239.337L241.648 54.8821H239.108L237.911 60.6571Z" fill="black"/>
<path d="M247.141 54.6075C245.853 54.6025 244.572 54.8013 243.346 55.1967V56.8935C244.467 56.7595 245.595 56.6895 246.724 56.6837C248.632 56.6837 248.957 56.9922 248.957 58.51V59.1763H247.68C244.664 59.1763 242.604 59.5558 242.604 62.4093V62.8165C242.604 64.8896 243.748 65.8799 245.752 65.8799C246.96 65.8919 248.144 65.5473 249.155 64.8896V65.593H251.484V58.4976C251.475 55.7705 250.578 54.6075 247.141 54.6075ZM249.013 63.3996C248.251 63.807 247.403 64.029 246.538 64.0474C245.641 64.0474 245.029 63.779 245.029 62.7919V62.3322C245.029 60.9255 245.811 60.7157 247.664 60.7157H248.997L249.013 63.3996Z" fill="black"/>
<path d="M256.508 54.8761H254.126V65.5931H256.622V57.5723C257.75 57.1274 258.954 56.9033 260.167 56.9121V54.6077C258.834 54.6077 257.516 54.8575 256.505 55.7491L256.508 54.8761Z" fill="black"/>
<path d="M270.854 61.0213V60.1822C270.854 56.9306 269.595 54.6077 266.01 54.6077C262.806 54.6077 261.163 56.3599 261.163 59.957V60.6202C261.163 64.39 262.536 65.8646 266.422 65.8646C267.764 65.867 269.102 65.7138 270.409 65.4081V63.5232C268.998 63.6558 267.662 63.77 266.536 63.77C263.904 63.77 263.675 62.7612 263.675 61.2033V61.012L270.854 61.0213ZM263.681 59.2135C263.681 57.9949 263.99 56.6252 266.01 56.6252C268.089 56.6252 268.336 57.9764 268.336 59.2135V59.3832H263.696L263.681 59.2135Z" fill="black"/>
<path d="M283.45 72.997H105.833C104.816 72.9954 103.842 72.5917 103.123 71.8746C102.405 71.1575 102.001 70.1855 102 69.1717V49.9093C102.001 48.8956 102.405 47.9235 103.123 47.2064C103.842 46.4893 104.816 46.0856 105.833 46.084H283.45C284.467 46.0856 285.442 46.4892 286.161 47.2062C286.88 47.9232 287.284 48.8953 287.286 49.9093V69.1748C287.283 70.1883 286.878 71.1595 286.159 71.8759C285.441 72.5923 284.466 72.9954 283.45 72.997ZM105.833 46.3925C104.898 46.3941 104.002 46.7653 103.342 47.4245C102.682 48.0838 102.31 48.9774 102.309 49.9093V69.1748C102.311 70.1062 102.683 70.999 103.343 71.6576C104.003 72.3162 104.899 72.6869 105.833 72.6885H283.45C284.385 72.6877 285.282 72.3169 285.943 71.6576C286.604 70.9982 286.976 70.1042 286.976 69.1717V49.9093C286.976 48.9768 286.604 48.0828 285.943 47.4234C285.282 46.7641 284.385 46.3933 283.45 46.3925H105.833Z" fill="black"/>
</svg>
